:SAMPLES-PER-SECOND 30
:FULLY-SPECIFIED
:DEGREES
169
root  50.6605 37.4053 0.339039 -178.635 25.9242 178.526
RightUpLeg  -36.038 -16.9812 -9.66924
RightLeg  42.9392 -4.76435 -5.03336
RightFoot  3.35884 -0.644668 5.17925
RightToes  0.00048216 0.542163 -0.142577
Spine  44.5244 -2.88404 2.33905
Spine1  12.0328 -0.948724 -3.55688
HEad  -5.60413 0.840442 -11.0853
LeftShoulder1  8.60442 -17.7742 -34.3561
LeftArm  -2.0889 -39.7209 -36.9163
LeftForeArm  -10.0049 -22.922 -5.72574
LeftHand  -0.25398 0.0180481 5.50724
RightShoulder  4.8451 11.496 26.2267
RightArm  -13.0015 25.4255 19.0831
RightForeArm  -36.3732 38.8699 10.8366
RightHand  -0.0775923 -6.54503 2.80787
LeftUpLeg  -32.0078 20.1163 -15.4514
LeftLeg  24.1694 2.14028 1.38823
LeftFoot  1.35744 -1.80511 16.0352
LeftToes  1.06246e-005 4.65855e-005 -8.18505e-006
170
root  51.9495 37.3789 0.154283 -176.951 21.2614 177.819
RightUpLeg  -35.7305 -17.5193 -11.0864
RightLeg  27.4564 -6.36723 -3.95492
RightFoot  0.748072 -0.583294 5.56161
RightToes  0.00048216 0.542163 -0.142577
Spine  46.8867 -3.62635 2.56276
Spine1  12.306 -1.80104 -2.40355
HEad  -7.98708 -1.53029 -10.2542
LeftShoulder1  8.89758 -19.2911 -32.9387
LeftArm  -6.21286 -45.5595 -38.5066
LeftForeArm  -7.54826 -16.396 -6.38851
LeftHand  -0.25398 0.0180481 5.50724
RightShoulder  4.71008 11.5651 25.1379
RightArm  -14.5499 31.2554 16.0085
RightForeArm  -36.8709 31.5904 8.60907
RightHand  0.0125822 -4.28776 5.11013
LeftUpLeg  -33.6675 17.2636 -15.0903
LeftLeg  26.2886 0.415636 0.566436
LeftFoot  0.915003 -1.66081 15.311
LeftToes  1.06246e-005 4.65855e-005 -8.18505e-006
171
root  53.391 37.2551 -0.0531648 -175.104 16.3112 176.83
RightUpLeg  -34.9727 -17.6201 -12.9305
RightLeg  15.6091 -4.35245 -1.41479
RightFoot  -1.06291 -0.566093 6.18848
RightToes  0.00048216 0.542163 -0.142577
Spine  49.2806 -4.40908 2.85144
Spine1  11.9884 -2.73097 -1.15248
HEad  -10.7342 -3.74528 -8.47617
LeftShoulder1  9.13343 -20.7851 -31.4854
LeftArm  -11.7193 -50.2802 -39.3414
LeftForeArm  -3.56452 -11.2632 -6.95886
LeftHand  -0.25398 0.0180481 5.50724
RightShoulder  4.71234 11.7705 24.712
RightArm  -16.9324 35.645 12.4351
RightForeArm  -36.3554 25.4869 7.10153
RightHand  0.165234 -2.28672 6.98075
LeftUpLeg  -35.8264 14.4061 -14.6831
LeftLeg  29.0022 -1.44659 -0.516028
LeftFoot  0.0636108 -1.40616 13.9997
LeftToes  1.06246e-005 4.65855e-005 -8.18505e-006
172
root  54.8676 37.1024 -0.213609 -173.04 11.7924 176.239
RightUpLeg  -35.3429 -15.6904 -14.7945
RightLeg  11.4738 -3.14157 -0.315574
RightFoot  1.54225 -0.786073 7.02395
RightToes  0.00048216 0.542163 -0.142577
Spine  51.8472 -5.30191 4.12362
Spine1  11.517 -3.35967 -0.259519
HEad  -13.8919 -5.51051 -6.354
LeftShoulder1  9.08092 -22.2032 -29.1556
LeftArm  -14.1056 -54.0306 -40.1594
LeftForeArm  -2.84865 -8.16097 -6.5013
LeftHand  -0.25398 0.0180481 5.50724
RightShoulder  4.72729 12.0573 24.2136
RightArm  -21.831 38.3127 9.21981
RightForeArm  -33.1208 20.8915 6.61656
RightHand  0.364075 -0.622119 9.0433
LeftUpLeg  -38.2844 12.1696 -13.6992
LeftLeg  31.5765 -3.43909 -1.92599
LeftFoot  -0.598992 -1.18776 12.6187
LeftToes  1.06246e-005 4.65855e-005 -8.18505e-006
173
root  56.3635 36.8732 -0.351286 -170.664 8.06348 175.846
RightUpLeg  -38.6507 -16.4372 -13.7289
RightLeg  14.25 -1.93139 -0.352464
RightFoot  8.35182 -1.13013 6.87384
RightToes  0.00048216 0.542163 -0.142577
Spine  54.0033 -6.2675 5.71559
Spine1  11.4721 -3.53921 -0.414257
HEad  -17.7529 -6.4985 -4.26604
LeftShoulder1  8.59811 -23.3528 -25.7152
LeftArm  -15.7583 -57.4943 -40.5428
LeftForeArm  -3.85614 -6.77723 -5.75169
LeftHand  -0.25398 0.0180481 5.50724
RightShoulder  4.68635 12.4005 23.2527
RightArm  -29.674 40.2188 6.17862
RightForeArm  -27.1702 17.2709 6.82483
RightHand  0.64333 1.32319 10.9605
LeftUpLeg  -41.7899 11.0763 -12.716
LeftLeg  34.6264 -5.04621 -3.37963
LeftFoot  -0.938825 -1.03234 11.362
LeftToes  1.06246e-005 4.65855e-005 -8.18505e-006
174
root  57.8478 36.5996 -0.533371 -167.702 5.38268 175.599
RightUpLeg  -44.1027 -20.0713 -9.88916
RightLeg  18.9905 -0.332012 -0.210704
RightFoot  14.1683 -1.10822 5.33068
RightToes  0.00048216 0.542163 -0.142577
Spine  55.75 -7.03158 6.75643
Spine1  11.7385 -3.34441 -1.28351
HEad  -22.0676 -6.51092 -2.56175
LeftShoulder1  8.05974 -24.0434 -22.8174
LeftArm  -19.1711 -60.939 -38.7482
LeftForeArm  -4.67871 -6.68531 -4.87525
LeftHand  -0.25398 0.0180481 5.50724
RightShoulder  4.71817 13.1066 22.122
RightArm  -37.2524 42.3377 2.25273
RightForeArm  -22.4124 14.2293 6.47609
RightHand  0.973006 3.71423 12.0385
LeftUpLeg  -46.6335 11.7406 -12.4332
LeftLeg  38.0327 -5.48761 -4.20675
LeftFoot  -0.851224 -0.883552 9.66581
LeftToes  1.06246e-005 4.65855e-005 -8.18505e-006
175
root  59.2212 36.4396 -0.761613 -164.122 4.03607 176.107
RightUpLeg  -50.6345 -23.2726 -4.01515
RightLeg  23.2342 1.46446 0.456253
RightFoot  14.6105 -0.468917 2.42535
RightToes  0.00048216 0.542163 -0.142577
Spine  57.2856 -7.27334 7.66398
Spine1  12.2373 -2.61465 -2.26078
HEad  -26.3938 -6.14807 -1.1752
LeftShoulder1  7.60207 -24.4664 -20.608
LeftArm  -24.9201 -64.3432 -34.8822
LeftForeArm  -4.81093 -7.34451 -3.69182
LeftHand  -0.25398 0.0180481 5.50724
RightShoulder  4.7902 13.9428 21.1059
RightArm  -44.8603 44.7584 -2.90801
RightForeArm  -19.5508 11.8067 5.56689
RightHand  1.25577 5.87346 12.4483
LeftUpLeg  -52.1563 14.3599 -12.8906
LeftLeg  40.5327 -4.38908 -3.62143
LeftFoot  -0.225646 -0.738959 7.60163
LeftToes  1.06246e-005 4.65855e-005 -8.18505e-006
176
root  60.466 36.4365 -1.038 -160.226 3.52479 177.17
RightUpLeg  -56.6994 -24.7548 2.66322
RightLeg  25.9542 3.20487 1.46515
RightFoot  11.9833 0.200795 -0.56378
RightToes  0.00048216 0.542163 -0.142577
Spine  59.1728 -7.07124 8.38322
Spine1  12.0321 -1.63502 -2.91359
HEad  -29.6237 -5.70263 -0.54855
LeftShoulder1  7.33429 -24.746 -19.3042
LeftArm  -32.5788 -67.245 -28.436
LeftForeArm  -5.26259 -8.29246 -2.59447
LeftHand  -0.25398 0.0180481 5.50724
RightShoulder  4.77932 14.6632 19.8697
RightArm  -52.511 46.9405 -8.07398
RightForeArm  -17.9405 10.3569 4.24189
RightHand  1.46139 7.36455 12.7413
LeftUpLeg  -57.4663 17.8404 -14.2644
LeftLeg  41.3445 -2.39057 -1.86921
LeftFoot  0.436514 -0.664641 6.40287
LeftToes  1.06246e-005 4.65855e-005 -8.18505e-006
177
root  61.6065 36.5058 -1.38894 -156.412 2.98788 177.787
RightUpLeg  -61.4947 -25.3712 8.4167
RightLeg  27.1434 4.37468 2.20159
RightFoot  10.3366 0.540429 -2.43371
RightToes  0.00048216 0.542163 -0.142577
Spine  61.3598 -6.94927 8.67671
Spine1  11.2308 -0.832454 -3.59079
HEad  -31.3824 -5.35671 -0.617273
LeftShoulder1  7.13384 -25.0294 -18.269
LeftArm  -41.7274 -69.5232 -19.3027
LeftForeArm  -6.65747 -9.1372 -1.81854
LeftHand  -0.25398 0.0180481 5.50724
RightShoulder  4.6025 15.0185 18.2929
RightArm  -59.9308 48.5696 -12.8321
RightForeArm  -16.7389 9.8018 2.88577
RightHand  1.61706 8.47685 12.9383
LeftUpLeg  -61.7493 20.6154 -16.5939
LeftLeg  40.4849 -0.796615 -0.344076
LeftFoot  0.491342 -0.698672 6.70905
LeftToes  1.06246e-005 4.65855e-005 -8.18505e-006
178
root  62.6362 36.5852 -1.80323 -152.978 2.18123 177.663
RightUpLeg  -65.5604 -25.7763 12.6822
RightLeg  28.0632 4.91693 2.60699
RightFoot  9.76257 0.825597 -4.07068
RightToes  0.00048216 0.542163 -0.142577
Spine  63.4042 -7.13668 8.86775
Spine1  10.6589 -0.316568 -4.45893
HEad  -32.4827 -5.18634 -0.545005
LeftShoulder1  6.75912 -25.4096 -16.5111
LeftArm  -52.4074 -71.2206 -8.5326
LeftForeArm  -7.93436 -9.92314 -1.08035
LeftHand  -0.25398 0.0180481 5.50724
RightShoulder  4.32018 15.0409 16.6119
RightArm  -66.5577 49.1556 -17.8769
RightForeArm  -16.1031 9.80956 1.8297
RightHand  1.75404 9.43997 13.0991
LeftUpLeg  -64.6513 22.2291 -19.0792
LeftLeg  38.4888 -0.517003 -0.0553693
LeftFoot  0.00731353 -0.736526 7.3995
LeftToes  1.06246e-005 4.65855e-005 -8.18505e-006
179
root  63.5755 36.6504 -2.2396 -149.894 1.30601 177.364
RightUpLeg  -69.3357 -25.8317 16.2532
RightLeg  29.3867 5.23192 2.94573
RightFoot  8.38224 1.12639 -6.1491
RightToes  0.00048216 0.542163 -0.142577
Spine  65.0773 -7.30445 9.20259
Spine1  10.6056 0.159325 -5.24767
HEad  -33.4262 -5.30895 0.119116
LeftShoulder1  6.03553 -25.8886 -13.4112
LeftArm  -64.2065 -71.9575 2.01763
LeftForeArm  -8.126 -11.0128 -0.0415461
LeftHand  -0.25398 0.0180481 5.50724
RightShoulder  3.99957 14.9333 14.8635
RightArm  -71.7337 48.3362 -22.6764
RightForeArm  -16.4352 10.2425 1.10099
RightHand  1.90173 9.97265 13.7175
LeftUpLeg  -66.8682 23.2702 -20.9682
LeftLeg  36.3564 -1.47629 -0.79504
LeftFoot  -0.35925 -0.6948 7.23871
LeftToes  1.06246e-005 4.65855e-005 -8.18505e-006
